<svg xmlns="http://www.w3.org/2000/svg" enable-background="new 0 0 47.5 47.5" viewBox="0 0 47.5 47.5"><defs><clipPath id="a" clipPathUnits="userSpaceOnUse"><path d="M 0,38 38,38 38,0 0,0 0,38 Z"/></clipPath></defs><g clip-path="url(#a)" transform="matrix(1.25 0 0 -1.25 0 47.5)"><path fill="#269" d="m 0,0 c 0,-2.209 -1.791,-4 -4,-4 l -26,0 c -2.209,0 -4,1.791 -4,4 l 0,19.687 c 0,2.209 5.791,6.313 8,6.313 l 20.625,0 C -2.281,26 0,23.687 0,20.625 L 0,0 Z" transform="translate(36 11)"/><path fill="#ccd6dd" d="m 0,0 c 0,-2.209 -1.791,-4 -4,-4 l -22,0 c -2.209,0 -4,1.791 -4,4 l 0,24 c 0,4.119 -0.021,4 5,4 l 21,0 c 2.209,0 4,-1.791 4,-4 L 0,0 Z" transform="translate(34 7)"/><path fill="#e1e8ed" d="m 0,0 c 0,-1.657 -1.343,-3 -3,-3 l -24,0 c -1.657,0 -3,1.343 -3,3 l 0,24 c 0,1.657 1.343,3 3,3 l 24,0 c 1.657,0 3,-1.343 3,-3 L 0,0 Z" transform="translate(32 6)"/><path fill="#3b88c3" d="m 0,0 c 0,-2.209 -1.791,-4 -4,-4 l -21,0 c -2.209,0 -4,1.791 -4,4 l 0,22 c 0,2.209 1.791,4 4,4 l 21,0 c 2.209,0 4,-1.791 4,-4 L 0,0 Z" transform="translate(32 5)"/><path fill="#55acee" d="m 0,0 c 0,-2.209 -1.791,-4 -4,-4 l -19,0 c -2.209,0 -4,1.791 -4,4 l 0,20 c 0,2.209 1.791,4 4,4 l 19.335,0 C -1.456,24 0,22.544 0,20.335 L 0,0 Z" transform="translate(30 5)"/><path fill="#269" d="M 0,0 C -1.687,0 -1.731,1.922 -1,2.75 -0.168,3.691 1.125,4 3.438,4 L 5,4 5,6 2.281,6 C -1.687,6 -5,3.5 -5,0.625 L -5,-26 c 0,-2.209 1.791,-4 4,-4 l 2,0 0,30 -1,0 z" transform="translate(7 31)"/></g></svg>