<svg xmlns="http://www.w3.org/2000/svg" enable-background="new 0 0 47.5 47.5" viewBox="0 0 47.5 47.5"><defs><clipPath id="a" clipPathUnits="userSpaceOnUse"><path d="M 0,38 38,38 38,0 0,0 0,38 Z"/></clipPath></defs><g clip-path="url(#a)" transform="matrix(1.25 0 0 -1.25 0 47.5)"><path fill="#5dadec" d="m 0,0 -22.418,-2.587 c -0.985,-0.114 -1.791,-1.017 -1.791,-2.009 l 0,-0.197 0,-4.198 0,-14.387 c -0.91,0.371 -1.925,0.585 -3,0.585 -3.865,0 -7,-2.686 -7,-6 0,-3.315 3.135,-6 7,-6 3.865,0 7,2.685 7,6 l 0,18.461 18,2.077 0,-13.123 c -0.91,0.371 -1.925,0.585 -3,0.585 -3.865,0 -7,-2.686 -7,-6 0,-3.315 3.135,-6 7,-6 3.865,0 7,2.685 7,6 l 0,20.802 0,4.395 C 1.791,-0.604 0.985,0.114 0,0" transform="translate(35.209 36.794)"/></g></svg>