<svg xmlns="http://www.w3.org/2000/svg" xmlns:xlink="http://www.w3.org/1999/xlink" enable-background="new 0 0 20 20" viewBox="0 0 20 20"><defs><linearGradient id="a"><stop offset="0" stop-color="#000092"/><stop offset="1" stop-color="#ff00f3"/></linearGradient><linearGradient id="b" x1="3" x2="13" y1="9" y2="9" gradientUnits="userSpaceOnUse" xlink:href="#a"/></defs><path fill="url(#b)" d="m 14.484375,2 c -0.03561,0.00143 -0.07097,0.00667 -0.105469,0.015625 l -7.9999998,2 C 6.1565155,4.0711561 6.0003571,4.2707813 6,4.5 L 6,7.8457031 6,8.1699219 6,12.28125 C 5.7040972,12.107658 5.3654971,12 5,12 3.9013528,12 3,12.901353 3,14 3,15.098647 3.9013528,16 5,16 6.0606351,16 6.9288812,15.157969 6.9882812,14.111328 6.996342,14.074774 7.0002729,14.037431 7,14 l 0,-5.609375 7,-1.75 0,3.640625 C 13.704097,10.107658 13.365497,10 13,10 c -1.098647,0 -2,0.901353 -2,2 0,1.098647 0.901353,2 2,2 1.060635,0 1.928881,-0.842031 1.988281,-1.888672 C 14.996342,12.074774 15.000273,12.037431 15,12 l 0,-5.9335938 c 0.0059,-0.044074 0.0059,-0.088739 0,-0.1328124 L 15,2.5 C 15.000109,2.2176511 14.766587,1.9912057 14.484375,2 Z M 14,3.140625 l 0,2.46875 -7,1.75 0,-2.46875 z M 13,11 c 0.558207,0 1,0.441793 1,1 0,0.558207 -0.441793,1 -1,1 -0.558207,0 -1,-0.441793 -1,-1 0,-0.558207 0.441793,-1 1,-1 z m -8,2 c 0.5582071,0 1,0.441793 1,1 0,0.558207 -0.4417929,1 -1,1 -0.5582071,0 -1,-0.441793 -1,-1 0,-0.558207 0.4417929,-1 1,-1 z" color="#000" font-family="sans-serif" font-weight="400" overflow="visible" style="line-height:normal;text-indent:0;text-align:start;text-decoration-line:none;text-decoration-style:solid;text-decoration-color:#000;text-transform:none;block-progression:tb;isolation:auto;mix-blend-mode:normal"/></svg>